<svg xmlns="http://www.w3.org/2000/svg" viewBox="0 0 253.27 226.16"><defs><style>.cls-1{fill:#ee4136;}.cls-2{fill:#e73a0c;}.cls-3{fill:#e5c3d3;}.cls-4{fill:#f85753;}.cls-5{fill:#1e0b13;}.cls-6{fill:#ed2e46;}.cls-7{fill:#f88484;}.cls-8{fill:#a77c91;}.cls-9{fill:#dc1d29;}.cls-10{fill:#f5d29b;}.cls-11{fill:#dbc5ba;}.cls-12{fill:#fbd79e;}.cls-13{fill:#e5dfe0;}.cls-14{fill:#e5e3e3;}.cls-15{fill:#f45c4f;}.cls-16{fill:#f35e50;}.cls-17{fill:#f35f51;}.cls-18{fill:#f25f50;}.cls-19{fill:#a6a0a2;}.cls-20{fill:#a8a0a1;}.cls-21{fill:#a9a0a1;}.cls-22{fill:#a9a0a2;}.cls-23{fill:#aba0a2;}.cls-24{fill:#a7a1a2;}.cls-25{fill:#aaa0a2;}.cls-26{fill:#4a0c1b;}.cls-27{fill:#fefefe;}.cls-28{fill:#a57a8f;}.cls-29{fill:#fefdfd;}.cls-30{fill:#4f183d;}.cls-31{fill:#4f183c;}.cls-32{fill:#50183d;}.cls-33{fill:#95979a;}.cls-34{fill:#939597;}</style></defs><title>Recurso 5</title><g id="Capa_2" data-name="Capa 2"><g id="Capa_1-2" data-name="Capa 1"><path class="cls-1" d="M217,225.9c-9.42-2-18.46-5.23-27.64-8-25.68-7.69-51.31-15.55-77-23.34-.6-.18-1.22-.27-1.83-.4-1-.52-2.48.2-3-1.34-.74-2.06-.51-4.2-.51-6.3q0-39.09,0-78.17c0-1.12,0-2.24,0-3.36-.1-4.35-.41-4.73-4.7-4.75-10.47-.05-20.94,0-31.41,0-1.86,0-3.76.2-5.51-.68a1.15,1.15,0,0,1-.61-1.15c1.48-1.57,3.45-1.2,5.27-1.21,10.71,0,21.43,0,32.14,0,4.61,0,4.86-.3,4.9-4.87,0-2.49-.09-5,0-7.47A14.38,14.38,0,0,0,103,74c-1.12-1.21-2.81-2.24-2.26-4.36.29-8,.55-16,.89-24,.06-1.26-.56-2.76.86-3.74a25.56,25.56,0,0,1,4.87-.09c2,.66,4-.2,6,.07a11.76,11.76,0,0,1,2.43.28,16.19,16.19,0,0,0,5.46.42c2.53.35,5.14.33,7.45,1.65,1.35,2.38.89,4.91.6,7.42C129,53,127.9,53.85,127.16,55c-1.34,2-1.31,4,.87,5.5,2,1.34,3.75.89,5.23-.93,1.73-2.12,1.08-3.89-.83-5.43-.86-.7-2-1.13-2.35-2.3-.46-2.48-.73-4.95.31-7.37a2,2,0,0,1,1.7-.74,26.7,26.7,0,0,0,5.65.27c3.55.57,7.14.67,10.7,1a15.53,15.53,0,0,0,5.47.51,14.79,14.79,0,0,1,3,.31,15,15,0,0,0,5.33.43,18.12,18.12,0,0,1,3.6.31,16.21,16.21,0,0,0,5.28.49,11.72,11.72,0,0,1,2.36.29,15.62,15.62,0,0,0,5.23.44,14,14,0,0,1,3,.31c1.72.61,3.51.4,5.28.48a3.86,3.86,0,0,1,3.19,1.48,10.54,10.54,0,0,1-2,7.13c-1,.79-2.31.92-3.3,1.68-1.71,1.33-2.73,3-1.51,5.14,1.1,2,2.74,3,5,1.89s3.06-2.78,2.08-5.18a15.41,15.41,0,0,1-1.11-2.77c0-2.89.46-5.66,2.28-8,2-1,4.17-.69,6.3-.41a15.48,15.48,0,0,0,5.46.52,14.44,14.44,0,0,1,3,.31,13.14,13.14,0,0,0,4.67.46,15,15,0,0,1,3,.31,16.9,16.9,0,0,0,5.49.42c1.81.13,3.59.34,4.75,2,1.14,4.31.65,8.67.34,13-1,3.51-.43,7.1-.5,10.65,0,2.92.19,5.86-.61,8.72a82.21,82.21,0,0,0-.13,10,41.22,41.22,0,0,1-.29,7.45c-1,3.5-.41,7.07-.45,10.61a43,43,0,0,1-.3,7.44c-1,4.42-.33,8.9-.48,13.35a21.67,21.67,0,0,1-.63,6.66,92.83,92.83,0,0,0-.1,10,41,41,0,0,1-.29,7.43c-1,3.51-.41,7.08-.45,10.62a48.74,48.74,0,0,1-.3,8.1c-1,3.49-.4,7-.46,10.59,0,2.92.17,5.85-.62,8.71a64.24,64.24,0,0,0-.09,9.51c.35,5.48-1,10.87-.84,16.34A4.39,4.39,0,0,1,217,225.9Z"/><path class="cls-2" d="M251.48,46c.57,0,1.34-.28,1.46.62A20.63,20.63,0,0,1,253,49.2q0,77.21,0,154.42c0,.62-.05,1.24-.08,1.87a1.56,1.56,0,0,1-2.06.12c-5.62-3.24-11.36-6.29-16.74-10a3.83,3.83,0,0,1-1.14-1.48c-.8-1.91-.68-3.93-.68-5.92q0-66.85,0-133.72a13.93,13.93,0,0,1,.54-5.18c1.08-1.89,3-1.94,4.85-2.34C242.25,46,246.89,46.28,251.48,46Z"/><path class="cls-3" d="M105.29,222.94c-.92.93-2.11.62-3.2.62q-43.62,0-87.24,0c-.95,0-2,.31-3.11-.67a6,6,0,0,1,4.65-1.52c3.74,0,7.49-.06,11.23,0,1.9,0,2.53-.66,2.7-2.59,1-11.94.67-23.91.71-35.87,0-6.16-3.37-9.76-8.54-12.42A76.19,76.19,0,0,1,8,161.33c-6.86-5.77-9-13.12-7.64-21.46a83.47,83.47,0,0,1,13.47-34A216.56,216.56,0,0,0,36.49,107c5.23-.08,10.38-.74,15.55-1.29,2.77-.51,3.05,2.13,4.37,3.45a117.39,117.39,0,0,1,9.24,20.13,80.86,80.86,0,0,1,3,13c.72,4.83-.55,9.33-2.9,13.55a34.64,34.64,0,0,1-9.61,9.08c-1.44.94-2.83,2-4.31,2.85a79.42,79.42,0,0,1-9.17,5A9.17,9.17,0,0,0,37.32,180c-1.37,9.68-.74,19.4-.42,29.11.08,2.22.43,4.45.46,6.7,0,4.17.23,4.33,4.53,4.36a51.33,51.33,0,0,0,10.79-.6,16.3,16.3,0,0,0,8.94,2c12.69-.08,25.38-.06,38.07,0C101.62,221.65,103.73,221.2,105.29,222.94Z"/><path class="cls-4" d="M233.58,48.87l-.09,107.75q0,17,0,34c0,1.49-.18,3,.83,4.3-4.61,8.7-8.84,17.59-13.28,26.37-.84,1.68-1.64,3.37-3.24,4.49-.24.3-.49.53-.79.07-.5-6.58,1-13.07.79-19.62a27.6,27.6,0,0,0,0-9.72c1.3-2.67.48-5.52.74-8.28,1-3.45-.28-7.06.72-10.51l0-8.24c1-3.45-.28-7.06.72-10.51l0-7.49a31.19,31.19,0,0,0,0-10.47c1.07-1.91.61-4,.74-6,1-4.46-.31-9,.72-13.49l0-7.51c1-3.45-.28-7.06.72-10.51l0-7.49a31.19,31.19,0,0,0,0-10.47c1.3-2.67.48-5.52.74-8.28,1-3.45-.28-7.06.72-10.51l-.05-13.45C226.45,50.6,229.36,48.3,233.58,48.87Z"/><path class="cls-5" d="M100.74,69.61c8.49,6.74,8,16.13,7.72,25.57-.08,2.63-.82,3.34-3.4,3.33-13.34-.08-26.67,0-40,.07a1.3,1.3,0,0,1-.84-.73c-.72-2-.26-4.19-.52-6.27s-1-3.68-3.39-3.67-3.11,1.6-3.45,3.64c-.39,2.38.68,5-1.22,7.14a3.13,3.13,0,0,1-3.57-.31c0-4.59.11-9.19-.08-13.78a14.43,14.43,0,0,1,3.62-9.87A61.91,61.91,0,0,1,66.73,63.8a5.41,5.41,0,0,0,2.43-5c-.16-3.84,0-7.7,0-11.54A3.62,3.62,0,0,1,71.9,46.2c5.45-.18,10.89-.19,16.34,0a3.73,3.73,0,0,1,2.69,1.09c0,3.84.19,7.68.07,11.52a4.7,4.7,0,0,0,2.11,4.35C95.76,65.17,98.21,67.44,100.74,69.61Z"/><path class="cls-5" d="M105.29,222.94c-15.67,0-31.33-.12-47-.07-2.74,0-4.81-.77-6.25-3.1a2,2,0,0,1-.81-1.23c-.44-6.33-1.16-12.66.44-18.94,3.42-1.35,4.71-.74,5.12,2.58a76.06,76.06,0,0,1,.14,7.85,25.16,25.16,0,0,0,.12,3.36c.27,1.9.64,4,3,4.05,2.6.11,3.27-1.88,3.42-4,.22-2.86.06-5.73.11-8.59.09-5.65.7-6.31,6.2-6.32q17,0,34,0c1.58,0,3.28-.29,4.6,1a187.75,187.75,0,0,1,0,20.27A4.44,4.44,0,0,1,105.29,222.94Z"/><path class="cls-6" d="M90.93,47.29l-21.72,0c-.91-4.15-.37-8.35-.36-12.52,0-5.32.26-10.63.4-16A4.15,4.15,0,0,1,72,17.71c5.43-.2,10.85-.19,16.28,0a3.67,3.67,0,0,1,2.68,1.07Z"/><path class="cls-7" d="M217.8,225.83q7-14.16,14.12-28.32c.54-1.07.82-2.43,2.4-2.54,6.31,3.33,12.1,7.56,18.62,10.52.22,1.16-.69,1.48-1.44,1.89q-16.14,9-32.29,18.06A6,6,0,0,1,217.8,225.83Z"/><path class="cls-6" d="M69.15,18.25c-2.88-5.46-1.66-8.92-1.55-13.52C67.68,1.5,68.81-.09,72.23,0c5.34.14,10.69.1,16,0C91,0,92.68,1.23,92.46,4c-.31,3.7,1.42,7.71-1.42,11.09-1,1.83-2.81,1.79-4.52,1.82-4.18.06-8.37.09-12.55,0A6.94,6.94,0,0,0,69.15,18.25Z"/><path class="cls-8" d="M52.91,105.84c-3.3,2.23-7.2,1.84-10.79,2-8,.36-16.14.52-24.18-.57-1.45-.2-3-.31-4.09-1.44a19.18,19.18,0,0,1,8-1.52c10.07,0,20.16-.69,30.19.73A1.06,1.06,0,0,1,52.91,105.84Z"/><path class="cls-9" d="M69.15,18.25c.06-1.73.28-2.74,2.68-2.58,5.19.34,10.41.09,15.62.13A7.26,7.26,0,0,0,91,15.05c0,1.24-.08,2.48-.13,3.72l-21.66,0A.4.4,0,0,1,69.15,18.25Z"/><path class="cls-10" d="M52.91,105.84l-.9-.79c0-2.22,0-4.45.05-6.67a5.78,5.78,0,0,0,3.72-.06,8.5,8.5,0,0,1,9,0,.45.45,0,0,0,.28.29l-.12.28-.37.51a5.57,5.57,0,0,1-2.85.72c-4.68.39-4.66.39-4.87,5.26-.06,1.46.17,3-1.17,4.15Z"/><path class="cls-11" d="M108.39,219.79q-.12-10.12-.26-20.26a4.81,4.81,0,0,1-.63-1.16c-.29-1.76-.61-3.54.84-5,.79.16,1.67.07,2.24.82-2,.34-1.53,1.93-1.54,3.2,0,6.17,0,12.34,0,18.51C109,217.2,109.43,218.62,108.39,219.79Z"/><path class="cls-12" d="M108.34,193.36l-.12,5.52c-6.57.62-13.15.24-19.72.24-8,0-15.9.35-23.84-.21-1.24-1.48-1.08-3.27-1.09-5,0-10.84,0-21.68,0-32.52A9.72,9.72,0,0,1,64.77,156c5.34-9,2-18,0-27s-1-18.32-1-27.49a3.22,3.22,0,0,1,1-2.37l.24-.3c13.24,0,26.49.14,39.73,0,3,0,3.74.86,3.73,3.78C108.29,132.88,108.34,163.12,108.34,193.36Z"/><path class="cls-13" d="M187.62,57.31l-.73,1.78c-.4.79-1.42.95-1.75,1.86-.49,1.35-.5,2.57,1,3.09s2.61,0,2.94-1.82c.18-1-.1-2,.07-2.95.24-.32.47-.65.7-1a4.82,4.82,0,0,1,1.59,6,4.72,4.72,0,0,1-4.69,3.06,4.83,4.83,0,0,1-4.41-2.93C180.68,60.92,183,57.8,187.62,57.31Z"/><path class="cls-14" d="M130.92,53.88c0-.48.05-1,.07-1.42a4.56,4.56,0,0,1,4.13,5.24,4.72,4.72,0,0,1-4.6,4.53,4.46,4.46,0,0,1-5-3.1c-1-3,.07-5.29,3-6.61l0,.13c.66,1.13,0,2.15-.26,3.21-.34,1.27-.43,2.51.95,3.26a1.73,1.73,0,0,0,2.08-.25c1.12-1,1-2.14.48-3.38C131.59,54.92,131.2,54.42,130.92,53.88Z"/><path class="cls-15" d="M221.52,121.54c-.42,4.48.9,9.06-.72,13.49C221.17,130.54,219.89,126,221.52,121.54Z"/><path class="cls-16" d="M222.27,103.52c-.35,3.5.81,7.1-.72,10.51C221.87,110.53,220.71,106.93,222.27,103.52Z"/><path class="cls-17" d="M220.06,141.06a16.19,16.19,0,0,1,0,10.47C220.05,148,220.06,144.55,220.06,141.06Z"/><path class="cls-16" d="M220,159c-.35,3.5.81,7.09-.72,10.51C219.63,166,218.46,162.43,220,159Z"/><path class="cls-16" d="M223.77,66.77c-.35,3.5.81,7.1-.72,10.51C223.38,73.78,222.21,70.18,223.77,66.77Z"/><path class="cls-17" d="M222.31,85.56a16.19,16.19,0,0,1,0,10.47C222.3,92.54,222.31,89.05,222.31,85.56Z"/><path class="cls-18" d="M219.27,177.77c-.35,3.5.81,7.09-.72,10.51C218.88,184.78,217.71,181.18,219.27,177.77Z"/><path class="cls-17" d="M217.81,196.56a13.84,13.84,0,0,1,0,9.72C217.8,203,217.81,199.8,217.81,196.56Z"/><path class="cls-19" d="M107.45,42.06c2,.25,4.12-.68,6,.62C111.44,42.69,109.36,43.22,107.45,42.06Z"/><path class="cls-20" d="M181.65,48.82c1.78.2,3.68-.64,5.34.61C185.18,49.46,183.32,49.94,181.65,48.82Z"/><path class="cls-21" d="M173.43,48.06c1.77.21,3.66-.63,5.31.63C176.94,48.71,175.09,49.18,173.43,48.06Z"/><path class="cls-22" d="M132.16,44.32c1.78.2,3.68-.64,5.33.62C135.69,45,133.83,45.43,132.16,44.32Z"/><path class="cls-23" d="M115.68,42.82c1.77.21,3.66-.64,5.31.62C119.19,43.45,117.34,43.93,115.68,42.82Z"/><path class="cls-24" d="M165.83,47.34c1.8.17,3.71-.66,5.39.59C169.4,48,167.53,48.44,165.83,47.34Z"/><path class="cls-20" d="M156.87,46.58c1.79.18,3.7-.65,5.37.6C160.42,47.21,158.56,47.69,156.87,46.58Z"/><path class="cls-20" d="M213.9,51.82c1.78.2,3.68-.64,5.34.61C217.43,52.46,215.57,52.94,213.9,51.82Z"/><path class="cls-20" d="M148.64,45.82c1.79.2,3.69-.64,5.35.61C152.18,46.45,150.32,46.94,148.64,45.82Z"/><path class="cls-24" d="M198.08,50.34c1.8.17,3.71-.66,5.39.59C201.65,51,199.78,51.44,198.08,50.34Z"/><path class="cls-25" d="M206.44,51.11c1.53.1,3.16-.61,4.55.58C209.45,51.71,207.85,52.17,206.44,51.11Z"/><path class="cls-26" d="M64,141.84c1,7.93-3.18,13.23-9.07,17.65-5.69,4.28-12.62,6.42-18.3,10.79a6.21,6.21,0,0,1-6.78-.13c-4.46-3.53-9.77-5.46-14.44-8.54C9.87,158,5,153.81,3.7,146.82A19.6,19.6,0,0,1,3.44,142c5.69-1.31,11.31.27,17,.55a238.94,238.94,0,0,0,25.81,0C52.12,142.15,58,141.05,64,141.84Z"/><path class="cls-27" d="M64.77,156q0,21.38,0,42.74c-3.05,1.88-6.13,1.64-9.23.11-1.07-1.38-1-3-1-4.63,0-8.3,0-16.6,0-24.9a8.59,8.59,0,0,1,1.18-5A58,58,0,0,0,64.77,156Z"/><path class="cls-28" d="M64,141.84a205.78,205.78,0,0,1-43.88,1.78C14.52,143.29,9,142.7,3.44,142c4-2.81,8.84-2,13.2-2.2,14.05-.52,28.14-.79,42.18.55C60.62,140.51,62.51,140.51,64,141.84Z"/><path class="cls-29" d="M64.69,99.16q0,14.93.07,29.86c-2.82-6.61-5.52-13.27-9.09-19.52,0-2.5.2-5,.06-7.48-.13-2.29.67-3.18,3-3C60.69,99.21,62.69,99.13,64.69,99.16Z"/><path class="cls-12" d="M55.74,164.34l.06,34.39a4.51,4.51,0,0,1-3.7.16L52,166.59Z"/><path class="cls-30" d="M64.77,98.29l-9,0c0-2.36,0-4.72,0-7.08.06-3,1.81-4.7,4.66-4.63,2.68.06,4.28,1.77,4.32,4.6C64.8,93.57,64.77,95.93,64.77,98.29Z"/><path class="cls-31" d="M55.77,80.68a4.67,4.67,0,0,1,4.93-4.84c2.73.26,4,1.94,4.13,4.73.1,3.13-1.72,4.53-4.44,4.86C58,85.73,55.79,83.3,55.77,80.68Z"/><path class="cls-32" d="M52.1,198.89l3.7-.16a44.28,44.28,0,0,0,9,0l43.43.14a1.07,1.07,0,0,1-.09.66c-13.22,0-26.44.1-39.66-.06-3,0-3.91.94-3.73,3.84.22,3.48,0,7,.06,10.47,0,3.09-1.18,5.14-4.45,5.22-3.44.08-4.44-2.34-4.54-5.2a100.5,100.5,0,0,1,0-10.84c.21-3-1-3.8-3.67-3.44A.76.76,0,0,1,52.1,198.89Z"/><path class="cls-33" d="M130.92,53.88C134,56,134.32,58.15,132,60c-1.31,1-2.55.72-3.75-.07-1.5-1-1.57-2.47-1-3.95.42-1.11,1.6-1.92,1.37-3.31,1.59,1.26-.24,3.43,1.4,4.88C131.31,56.55,130.58,55.05,130.92,53.88Z"/><path class="cls-33" d="M189.16,59.27c1,2.09,2,4.41-.7,5.8-1.71.89-3.84.65-4.61-1.65-.87-2.63.49-4,3-4.33-.13,1.14-1.1,2.22-.2,3.57C188.8,62.48,188.05,60.15,189.16,59.27Z"/><polygon class="cls-1" points="102.28 41.79 226.12 52.14 222.28 54.79 102.28 43.79 102.28 41.79"/><polygon class="cls-34" points="102.28 41.79 134.83 37.17 253.28 45.79 233.28 48.79 223.28 54.79 172.28 47.79 102.28 42.79 102.28 41.79"/><path class="cls-34" d="M143.29,43.79h3s-6-29.44,28.51-26.88,25.52,26.88,25.52,26.88h3s9.35-29.34-30.39-30C135.42,13.18,143.29,43.79,143.29,43.79Z"/><path class="cls-34" d="M129.29,59.79h3s-6-45.16,28.51-41.23,25.52,41.23,25.52,41.23h3s9.35-45-30.39-46C121.42,12.85,129.29,59.79,129.29,59.79Z"/></g></g></svg>